# AST/ASF file generated using VICON BodyLanguage
# -----------------------------------------------
:version 1.10
:name VICON
:units
  mass 1.0
  length 0.45
  angle deg
:documentation
   .ast/.asf automatically generated from VICON data using
   VICON BodyBuilder and BodyLanguage model FoxedUp or BRILLIANT.MOD
:root
   order TX TY TZ RX RY RZ
   axis XYZ
   position 0 0 0  
   orientation 0 0 0 
:bonedata
  begin
     id 1 
     name lhipjoint
     direction 0.635376 -0.686425 0.353719 
     length 2.47244 
     axis 0 0 0  XYZ
  end
  begin
     id 2 
     name lfemur
     direction 0.34202 -0.939693 0  
     length 7.25268  
     axis 0 0 20  XYZ
    dof rx ry rz
    limits (-160.0 20.0)
           (-70.0 70.0)
           (-60.0 70.0)
  end
  begin
     id 3 
     name ltibia
     direction 0.34202 -0.939693 0   
     length 7.6767   
     axis 0 0 20   XYZ
    dof rx
    limits (-10.0 170.0)
  end
  begin
     id 4 
     name lfoot
     direction 0.0803374 -0.220725 0.972022   
     length 2.22945   
     axis -90 7.62852e-016 20   XYZ
    dof rx rz
    limits (-45.0 90.0)
           (-70.0 20.0)
  end
  begin
     id 5 
     name ltoes
     direction 1.53579e-011 -4.21994e-011 1   
     length 1.11848   
     axis -90 7.62852e-016 20   XYZ
    dof rx
    limits (-90.0 20.0)
  end
  begin
     id 6 
     name rhipjoint
     direction -0.664428 -0.664335 0.342336   
     length 2.55466  
     axis 0 0 0  XYZ 
  end
  begin
     id 7 
     name rfemur
     direction -0.34202 -0.939693 0   
     length 6.83172   
     axis 0 0 -20   XYZ
    dof rx ry rz
    limits (-160.0 20.0)
           (-70.0 70.0)
           (-70.0 60.0)
  end
  begin
     id 8 
     name rtibia
     direction -0.34202 -0.939693 0   
     length 7.62692   
     axis 0 0 -20   XYZ
    dof rx
    limits (-10.0 170.0)
 end
 begin
     id 9 
     name rfoot
     direction -0.0949276 -0.260811 0.960711   
     length 2.19684  
     axis -90 -7.62852e-016 -20   XYZ
    dof rx rz
    limits (-45.0 90.0)
           (-20.0 70.0)
  end
  begin
     id 10 
     name rtoes
     direction -1.53543e-011 -4.2183e-011 1   
     length 1.09848   
     axis -90 -7.62852e-016 -20   XYZ
    dof rx
    limits (-90.0 20.0)
  end
  begin
     id 11 
     name lowerback
     direction 0.0118782 0.999815 -0.0151555   
     length 2.15772   
     axis 0 0 0   XYZ
    dof rx ry rz
    limits (-20.0 45.0)
           (-30.0 30.0)
           (-30.0 30.0)
  end
  begin
     id 12 
     name upperback
     direction 0.00130825 0.999065 0.0432113   
     length 2.14863   
     axis 0 0 0   XYZ
    dof rx ry rz
    limits (-20.0 45.0)
           (-30.0 30.0)
           (-30.0 30.0)
  end
  begin
     id 13 
     name thorax
     direction -0.00347005 0.998773 0.0494011   
     length 2.14936   
     axis 0 0 0   XYZ
    dof rx ry rz
    limits (-20.0 45.0)
           (-30.0 30.0)
           (-30.0 30.0)
  end
  begin
     id 14 
     name lowerneck
     direction -0.0262159 0.99424 0.103921   
     length 1.69373   
     axis 0 0 0   XYZ
    dof rx ry rz
    limits (-20.0 45.0)
           (-30.0 30.0)
           (-30.0 30.0)
  end
  begin
     id 15 
     name upperneck
     direction 0.0353511 0.977394 -0.20845   
     length 1.70857   
     axis 0 0 0   XYZ
    dof rx ry rz
    limits (-20.0 45.0)
           (-30.0 30.0)
           (-30.0 30.0)
  end
  begin
     id 16
     name head
     direction 0.0139214 0.996594 -0.0812836  
     length 1.72777  
     axis 0 0 0   XYZ
    dof rx ry rz
    limits (-20.0 45.0)
           (-30.0 30.0)
           (-30.0 30.0)
  end
  begin
     id 17 
     name lclavicle
     direction 0.841247 0.537205 -0.0609508  
     length 3.55371  
     axis 0 0 0   XYZ
    dof ry rz
    limits (-20.0 10.0)
           (0.0 20.0)
  end
  begin
     id 18 
     name lhumerus
     direction 1 -4.48964e-011 1.60116e-018   
     length 4.91377   
     axis -180 -30 -90   XYZ
    dof rx ry rz
    limits (-60.0 90.0)
           (-90.0 90.0)
           (-90.0 90.0)
  end
  begin
     id 19
     name lradius
     direction 1 -4.48989e-011 -8.93847e-027   
     length 3.00291   
     axis -180 -30 -90   XYZ
    dof rx
    limits (-10.0 170.0)
  end
  begin
     id 20
     name lwrist
     direction 1 -4.48932e-011 -7.31504e-027   
     length 1.50145   
     axis 5.74121e-015 90 90   XYZ
    dof ry
    limits (-180.0 0.0)
 end
  begin
     id 21 
     name lhand
     direction 1 -4.48971e-011 -1.46301e-026   
     length 0.450922   
     axis 9.33524e-015 90 90   XYZ
    dof rx rz
    limits (-90.0 90.0)
           (-45.0 45.0)
  end
  begin
     id 22 
     name lfingers
     direction 1 -4.49039e-011 -2.92602e-026   
     length 0.363545   
     axis 1.86705e-014 90 90   XYZ
    dof rx
    limits (0.0 90.0)
  end
  begin
     id 23
     name lthumb
     direction 0.707107 -6.34941e-011 0.707107   
     length 0.52198   
     axis -90 45 2.85299e-015   XYZ
    dof rx rz
    limits (-45.0 45.0)
           (-45.0 45.0)
  end
  begin
     id 24 
     name rclavicle
     direction -0.825079 0.56158 -0.0622297   
     length 3.39909  
     axis 0 0 0   XYZ 
    dof ry rz
    limits (-10.0 20.0)
           (-20.0 0.0)
  end
  begin
     id 25 
     name rhumerus
     direction -1 -4.48965e-011 1.61691e-027  
     length 4.86725   
     axis -180 30 90   XYZ
    dof rx ry rz
    limits (-90.0 60.0)
           (-90.0 90.0)
           (-90.0 90.0)
  end
  begin
     id 26 
     name rradius
     direction -1 -4.48964e-011 -2.25776e-027   
     length 3.17144   
     axis -180 30 90   XYZ
    dof rx
    limits (-10.0 170.0)
  end
  begin
     id 27 
     name rwrist
     direction -1 -4.48961e-011 -7.31504e-027   
     length 1.58572   
     axis 5.74121e-015 -90 -90   XYZ
    dof ry
    limits (-180.0 0.0)
  end
  begin
     id 28
     name rhand
     direction -1 -4.49013e-011 -1.46301e-026   
     length 0.419368   
     axis 9.33524e-015 -90 -90   XYZ
    dof rx rz
    limits (-90.0 90.0)
           (-45.0 45.0)
  end
  begin
     id 29
     name rfingers
     direction -1 -4.489e-011 -2.92602e-026   
     length 0.338105   
     axis 1.86705e-014 -90 -90   XYZ
    dof rx
    limits (0.0 90.0)
  end
  begin
     id 30
     name rthumb
     direction -0.707107 -6.35022e-011 0.707107   
     length 0.485453   
     axis -90 -45 -2.85299e-015   XYZ
    dof rx rz
    limits (-45.0 45.0)
           (-45.0 45.0)
  end
:hierarchy
  begin
    root lhipjoint rhipjoint lowerback
    lhipjoint lfemur
    lfemur ltibia
    ltibia lfoot
    lfoot ltoes
    rhipjoint rfemur
    rfemur rtibia
    rtibia rfoot
    rfoot rtoes
    lowerback upperback
    upperback thorax
    thorax lowerneck lclavicle rclavicle
    lowerneck upperneck
    upperneck head
    lclavicle lhumerus
    lhumerus lradius
    lradius lwrist
    lwrist lhand lthumb
    lhand lfingers
    rclavicle rhumerus
    rhumerus rradius
    rradius rwrist
    rwrist rhand rthumb
    rhand rfingers
  end

#!OML:ASF H:\Swim 2\Project 1\Capture day 1\Session 1\male.ASF
:FULLY-SPECIFIED
:DEGREES
152
root -0.630829 14.7019 9.46535 112.926 -1.07645 1.15167
lowerback -23.372 -6.02676 7.76193
upperback -4.13802 -9.86202 -5.36285
thorax 5.97056 -4.90933 -13.0794
lowerneck -19.3432 2.34531 0.798085
upperneck 33.3712 5.04241 -5.51788
head 15.0674 1.36255 -1.53521
rclavicle 1.04958e-013 7.11649e-014
rhumerus -48.5127 28.6285 -79.9289
rradius 66.2653
rwrist -20.0243
rhand -31.9067 7.75314
rfingers 7.12502
rthumb -5.15865 -22.1641
lclavicle 1.04958e-013 7.11649e-014
lhumerus 78.7188 15.7571 30.4469
lradius 20.521
lwrist 13.6346
lhand -41.9455 -2.45354
lfingers 7.12502
lthumb -14.8427 26.9948
rfemur -39.9083 3.76249 21.9695
rtibia 7.9442
rfoot 7.83417 -14.2096
rtoes 14.3748
lfemur -33.1243 -3.76579 -16.2254
ltibia 41.6533
lfoot 2.69178 -4.23008
ltoes -17.0993
153
root -0.637719 14.7047 9.47126 112.81 -1.13149 1.30273
lowerback -23.4708 -6.11298 7.94897
upperback -4.03616 -10.0321 -5.42391
thorax 6.0449 -4.98202 -13.3221
lowerneck -19.2059 2.45702 0.575224
upperneck 33.4681 5.20964 -5.31926
head 15.0743 1.42728 -1.38641
rclavicle -1.90833e-014 3.93594e-014
rhumerus -50.1847 29.0612 -80.0013
rradius 65.5882
rwrist -22.9304
rhand -31.3325 8.02072
rfingers 7.12502
rthumb -4.60419 -21.9092
lclavicle -1.90833e-014 3.93594e-014
lhumerus 78.3338 15.9454 29.9702
lradius 20.8603
lwrist 14.2684
lhand -42.3246 -2.28594
lfingers 7.12502
lthumb -15.2078 27.1351
rfemur -39.1861 3.60305 22.1157
rtibia 6.45578
rfoot 8.13283 -13.6931
rtoes 13.9598
lfemur -32.7947 -3.55778 -16.2817
ltibia 42.5264
lfoot 3.07135 -4.55038
ltoes -16.8522
154
root -0.642789 14.7083 9.47447 112.66 -1.2103 1.49188
lowerback -23.5501 -6.21125 8.12921
upperback -3.93434 -10.2154 -5.50029
thorax 6.10214 -5.06283 -13.5781
lowerneck -19.0954 2.56304 0.41279
upperneck 33.5746 5.38117 -5.21131
head 15.0971 1.48844 -1.28536
rclavicle 9.54166e-014 2.94201e-014
rhumerus -51.6801 29.4403 -80.0147
rradius 64.6975
rwrist -25.5473
rhand -30.4559 8.30987
rfingers 7.12502
rthumb -3.75773 -21.6367
lclavicle 9.54166e-014 2.94201e-014
lhumerus 77.9555 16.1513 29.4119
lradius 21.279
lwrist 15.0108
lhand -42.6869 -2.22909
lfingers 7.12502
lthumb -15.5568 27.1652
rfemur -38.7097 3.40306 22.2582
rtibia 5.7633
rfoot 8.54627 -13.0302
rtoes 13.5763
lfemur -32.5238 -3.42514 -16.3476
ltibia 43.4053
lfoot 3.5007 -4.84952
ltoes -16.5459
155
root -0.64615 14.7127 9.47522 112.483 -1.31095 1.70742
lowerback -23.6157 -6.31791 8.29956
upperback -3.83647 -10.4066 -5.59027
thorax 6.14307 -5.14932 -13.843
lowerneck -19.0094 2.66345 0.304247
upperneck 33.6862 5.55486 -5.18102
head 15.1329 1.54622 -1.22563
rclavicle -6.67916e-014 3.97569e-016
rhumerus -52.9694 29.743 -79.9348
rradius 63.5705
rwrist -27.737
rhand -29.2763 8.5664
rfingers 7.12502
rthumb -2.61853 -21.3973
lclavicle -6.67916e-014 3.97569e-016
lhumerus 77.5872 16.3728 28.7983
lradius 21.7628
lwrist 15.7962
lhand -43.0285 -2.2836
lfingers 7.12502
lthumb -15.8858 27.0848
rfemur -38.6165 3.17832 22.4004
rtibia 6.10241
rfoot 8.87794 -12.2513
rtoes 13.2473
lfemur -32.3135 -3.35425 -16.4274
ltibia 44.2615
lfoot 3.97119 -5.13474
ltoes -16.1786
156
root -0.648008 14.7174 9.47376 112.29 -1.42654 1.9381
lowerback -23.6768 -6.427 8.45858
upperback -3.74736 -10.5981 -5.68892
thorax 6.17021 -5.23784 -14.1098
lowerneck -18.94 2.75833 0.237138
upperneck 33.7946 5.72751 -5.20821
head 15.1749 1.60087 -1.19709
rclavicle -8.5875e-014 -2.0276e-014
rhumerus -54.0467 29.9697 -79.733
rradius 62.211
rwrist -29.4206
rhand -27.8217 8.73044
rfingers 7.12502
rthumb -1.21367 -21.2459
lclavicle -8.5875e-014 -2.0276e-014
lhumerus 77.2323 16.606 28.157
lradius 22.2977
lwrist 16.5639
lhand -43.3501 -2.44361
lfingers 7.12502
lthumb -16.1955 26.8998
rfemur -38.8206 2.94105 22.5411
rtibia 7.27343
rfoot 9.1224 -11.41
rtoes 12.9815
lfemur -32.1683 -3.3259 -16.5202
ltibia 45.0678
lfoot 4.46576 -5.4088
ltoes -15.7513
157
root -0.648613 14.7222 9.47038 112.094 -1.54774 2.17373
lowerback -23.744 -6.53168 8.60632
upperback -3.67245 -10.7816 -5.78923
thorax 6.18682 -5.32432 -14.37
lowerneck -18.8776 2.84878 0.201806
upperneck 33.8896 5.89947 -5.28239
head 15.2157 1.65326 -1.19354
rclavicle 3.49861e-014 2.74323e-014
rhumerus -54.9226 30.1364 -79.3882
rradius 60.6427
rwrist -30.5907
rhand -26.1368 8.76666
rfingers 7.12502
rthumb 0.413611 -21.2127
lclavicle 3.49861e-014 2.74323e-014
lhumerus 76.8928 16.8462 27.5124
lradius 22.8731
lwrist 17.2667
lhand -43.6549 -2.70292
lfingers 7.12502
lthumb -16.489 26.6164
rfemur -39.1458 2.70796 22.6731
rtibia 8.89711
rfoot 9.36121 -10.5718
rtoes 12.7747
lfemur -32.0953 -3.31974 -16.6209
ltibia 45.7999
lfoot 4.96069 -5.66572
ltoes -15.2734
158
root -0.648115 14.7264 9.46535 111.906 -1.66526 2.40918
lowerback -23.8258 -6.62631 8.74541
upperback -3.61623 -10.9511 -5.88417
thorax 6.19515 -5.40585 -14.6171
lowerneck -18.8131 2.9362 0.194434
upperneck 33.9609 6.07432 -5.40661
head 15.2488 1.70454 -1.21489
rclavicle 6.67916e-014 1.43125e-014
rhumerus -55.6148 30.263 -78.8841
rradius 58.9025
rwrist -31.3147
rhand -24.2591 8.66763
rfingers 7.12502
rthumb 2.22714 -21.3005
lclavicle 6.67916e-014 1.43125e-014
lhumerus 76.5691 17.0902 26.8789
lradius 23.481
lwrist 17.8821
lhand -43.9491 -3.05735
lfingers 7.12502
lthumb -16.7722 26.2382
rfemur -39.4797 2.46758 22.8141
rtibia 10.7216
rfoot 9.63357 -9.7515
rtoes 12.6278
lfemur -32.1006 -3.32165 -16.7225
ltibia 46.439
lfoot 5.4299 -5.89255
ltoes -14.7568
